<svg xmlns="http://www.w3.org/2000/svg" xmlns:xlink="http://www.w3.org/1999/xlink" width="500" zoomAndPan="magnify" viewBox="0 0 375 374.999991" height="500" preserveAspectRatio="xMidYMid meet" version="1.0"><defs><clipPath id="bb55d193da"><path d="M 3.328125 94.25 L 253.714844 94.25 L 253.714844 344.535156 L 3.328125 344.535156 Z M 3.328125 94.25 " clip-rule="nonzero"/></clipPath></defs><path fill="#eaa15e" d="M 3.414062 167.15625 C 0.0117188 140.390625 98.496094 48.265625 157.078125 45.828125 C 215.65625 43.390625 353.722656 174.800781 364.378906 186.191406 C 375.03125 197.582031 274.234375 220.132812 205.964844 202.90625 C 205.964844 202.90625 257.433594 303.183594 252.882812 328.730469 C 248.335938 354.28125 150.546875 348.617188 99.578125 313.410156 C 48.609375 278.199219 6.953125 194.988281 3.414062 167.15625 " fill-opacity="1" fill-rule="nonzero"/><g clip-path="url(#bb55d193da)"><path fill="#db8e4b" d="M 252.882812 328.730469 C 254.128906 321.742188 251.179688 309.164062 246.242188 294.578125 C 221.417969 296.515625 178.035156 301.964844 114.859375 272.136719 C 48.082031 240.609375 31.957031 144.855469 60.398438 94.535156 C 27.210938 121.914062 1.652344 153.296875 3.414062 167.15625 C 6.953125 194.988281 48.609375 278.199219 99.578125 313.410156 C 150.546875 348.617188 248.335938 354.28125 252.882812 328.730469 " fill-opacity="1" fill-rule="nonzero"/></g><path fill="#db8e4b" d="M 343.347656 199.378906 C 253.464844 176.816406 159.753906 20.449219 157.179688 71.035156 C 154.5 123.640625 205.964844 202.90625 205.964844 202.90625 C 251.542969 214.40625 311.621094 208.175781 343.347656 199.378906 " fill-opacity="1" fill-rule="nonzero"/><path fill="#bd753d" d="M 159.03125 94.871094 C 159.03125 94.871094 171.933594 156.132812 205.964844 202.90625 C 248.34375 213.597656 303.261719 208.964844 336.265625 201.183594 C 278.859375 209.074219 197.3125 181.832031 159.03125 94.871094 " fill-opacity="1" fill-rule="nonzero"/><path fill="#efc19c" d="M 173.316406 138.820312 C 182.332031 161.757812 193.179688 183.945312 204.402344 205.871094 C 208.851562 214.558594 213.554688 223.144531 217.734375 231.964844 C 217.921875 232.359375 219.839844 235.808594 219.308594 236.199219 C 218.808594 236.566406 216.730469 233.515625 216.503906 233.21875 C 210.726562 225.496094 205.792969 217.058594 200.9375 208.746094 C 194.871094 198.359375 189.148438 187.78125 183.773438 177.023438 C 172.425781 154.308594 161.898438 130.488281 156.414062 105.59375 C 153.621094 92.90625 151.027344 76.886719 157.214844 64.746094 C 160.507812 58.292969 167.199219 58.988281 172.570312 62.429688 C 173.796875 63.21875 185.808594 73.261719 184.242188 74.617188 C 183.714844 75.074219 176.726562 68.988281 176.089844 68.523438 C 173.097656 66.347656 169.03125 63.285156 165.117188 63.464844 C 161.167969 63.644531 160.265625 68.503906 159.609375 71.609375 C 158.65625 76.089844 158.601562 80.714844 158.890625 85.269531 C 160.054688 103.660156 166.648438 121.8125 173.316406 138.820312 " fill-opacity="1" fill-rule="nonzero"/><path fill="#f2ae6f" d="M 74.140625 140.558594 C 69.777344 173.140625 83.507812 207.566406 109.101562 228.214844 C 125.4375 241.394531 145.585938 248.871094 165.660156 255.011719 C 169.914062 256.3125 174.617188 257.542969 178.6875 255.753906 C 185.09375 252.941406 186.40625 244.449219 185.785156 237.480469 C 182.957031 205.75 160.050781 179.816406 148.507812 150.121094 C 138.304688 123.886719 137.230469 94.203125 145.507812 67.296875 C 146.101562 65.367188 146.679688 63.0625 145.402344 61.488281 C 142.5 57.9375 125.851562 67.484375 122.179688 69.585938 C 113.472656 74.558594 105.597656 80.984375 98.847656 88.390625 C 85.695312 102.824219 76.734375 121.164062 74.140625 140.558594 " fill-opacity="1" fill-rule="nonzero"/><path fill="#bd753d" d="M 33.636719 237.628906 C 33.636719 237.628906 80.617188 300.707031 139.582031 316.828125 C 191.683594 331.070312 241.648438 315.402344 245.230469 324.921875 C 250.320312 338.441406 190.003906 343.519531 137.5 326.445312 C 66.222656 303.265625 33.636719 237.628906 33.636719 237.628906 " fill-opacity="1" fill-rule="nonzero"/><path fill="#f2ae6f" d="M 197.214844 61.550781 C 191.761719 60.796875 236.269531 106.671875 271.503906 135.09375 C 306.738281 163.523438 332.210938 178.375 338.152344 175.828125 C 344.097656 173.285156 217.589844 64.375 197.214844 61.550781 " fill-opacity="1" fill-rule="nonzero"/></svg>