<svg xmlns="http://www.w3.org/2000/svg" xmlns:xlink="http://www.w3.org/1999/xlink" width="500" zoomAndPan="magnify" viewBox="0 0 375 374.999991" height="500" preserveAspectRatio="xMidYMid meet" version="1.0"><defs><clipPath id="7a382aa4a3"><path d="M 250 208 L 319.429688 208 L 319.429688 317.964844 L 250 317.964844 Z M 250 208 " clip-rule="nonzero"/></clipPath><clipPath id="6f8fc306fa"><path d="M 211.246094 207.898438 L 261.632812 207.898438 L 261.632812 317.964844 L 211.246094 317.964844 Z M 211.246094 207.898438 " clip-rule="nonzero"/></clipPath></defs><path fill="#bd753d" d="M 202.269531 122.246094 C 202.269531 122.246094 209.996094 135.835938 206.5625 159.21875 C 203.125 182.59375 181.984375 213.972656 181.984375 213.972656 L 152.511719 192.179688 L 131.246094 140.886719 L 162.445312 119.46875 L 202.269531 122.246094 " fill-opacity="1" fill-rule="nonzero"/><path fill="#eae2da" d="M 157.558594 125.609375 C 157.558594 125.609375 182.683594 133.859375 223.972656 129.4375 C 265.265625 125.011719 335.828125 116.917969 364.195312 107.34375 L 375 164.617188 C 375 164.617188 326.140625 185.398438 278.574219 190.515625 C 223.53125 196.4375 171.222656 192.136719 171.222656 192.136719 L 136.117188 148.46875 L 157.558594 125.609375 " fill-opacity="1" fill-rule="nonzero"/><path fill="#eaa15e" d="M 134.597656 209.621094 L 181.984375 213.972656 C 181.984375 213.972656 150.0625 147.277344 156.675781 138.753906 C 163.289062 130.226562 202.269531 122.246094 202.269531 122.246094 C 202.269531 122.246094 112.636719 50.910156 74.945312 80.269531 C 37.253906 109.632812 0.0351562 222.640625 4.960938 244.089844 C 13.511719 262.191406 55.242188 292.070312 97.007812 302.078125 C 138.777344 312.089844 201.222656 314.195312 200.769531 308.316406 C 200.742188 307.976562 200.59375 307.648438 200.332031 307.328125 L 200.996094 307.414062 C 196.082031 285.023438 134.597656 209.621094 134.597656 209.621094 " fill-opacity="1" fill-rule="nonzero"/><path fill="#db8e4b" d="M 181.984375 213.972656 C 181.984375 213.972656 177.972656 205.59375 173.089844 194.394531 C 126.507812 180.648438 84.035156 91.21875 84.035156 91.21875 C 79.769531 97.832031 81.691406 109.695312 91.441406 139.5 C 101.1875 169.304688 134.597656 209.621094 134.597656 209.621094 L 181.984375 213.972656 " fill-opacity="1" fill-rule="nonzero"/><path fill="#bd753d" d="M 134.597656 209.621094 L 170.632812 212.929688 C 119.097656 188.148438 82.753906 114.992188 82.753906 114.992188 C 93.273438 163.691406 134.597656 209.621094 134.597656 209.621094 " fill-opacity="1" fill-rule="nonzero"/><path fill="#db8e4b" d="M 201.207031 308.273438 C 201.179688 307.933594 200.996094 307.414062 200.996094 307.414062 C 199.75 301.71875 194.835938 292.59375 188.207031 282.152344 C 172.804688 281.761719 152.628906 280.417969 126.199219 277.582031 C 43.632812 268.722656 24.984375 206.351562 20.941406 173.203125 C 9.378906 204.847656 2.691406 234.203125 4.960938 244.089844 C 13.511719 262.191406 55.242188 292.070312 97.007812 302.078125 C 138.777344 312.089844 201.660156 314.15625 201.207031 308.273438 " fill-opacity="1" fill-rule="nonzero"/><path fill="#bd753d" d="M 28.734375 269.214844 C 28.734375 269.214844 63.566406 294.019531 138.808594 302.308594 C 169.546875 305.691406 194.601562 302.0625 196.871094 305.328125 C 202.53125 313.46875 132.273438 307.828125 104.070312 301.214844 C 84.671875 296.671875 44.792969 283.53125 28.734375 269.214844 " fill-opacity="1" fill-rule="nonzero"/><path fill="#f2ae6f" d="M 35.140625 176.335938 C 36.101562 196.203125 46.636719 214.710938 60.75 228.742188 C 74.863281 242.777344 92.382812 252.855469 110.117188 261.914062 C 114.136719 263.96875 118.253906 266.003906 122.707031 266.765625 C 127.15625 267.527344 132.066406 266.84375 135.523438 263.945312 C 140.035156 260.160156 141.078125 253.417969 139.589844 247.730469 C 138.101562 242.042969 134.53125 237.160156 130.988281 232.46875 C 118.355469 215.738281 105.046875 199.429688 94.359375 181.398438 C 83.667969 163.371094 75.601562 143.304688 74.589844 122.371094 C 74.332031 117.058594 73.949219 102.566406 65.210938 105.921875 C 59.3125 108.183594 52.828125 122.179688 49.691406 127.433594 C 40.871094 142.195312 34.292969 158.863281 35.140625 176.335938 " fill-opacity="1" fill-rule="nonzero"/><path fill="#f2ae6f" d="M 115.585938 84.351562 C 111.972656 83.769531 107.230469 84.019531 106.007812 87.460938 C 104.804688 90.859375 108.203125 94 111.1875 96.019531 C 120.433594 102.269531 129.675781 108.519531 138.921875 114.769531 C 147.621094 120.652344 157.808594 126.8125 167.949219 124.089844 C 172.449219 122.882812 176.839844 119.035156 176.34375 114.410156 C 175.984375 111.054688 173.242188 108.503906 170.566406 106.445312 C 155.511719 94.871094 134.234375 87.382812 115.585938 84.351562 " fill-opacity="1" fill-rule="nonzero"/><path fill="#db8e4b" d="M 155.082031 150.992188 C 154.285156 146.855469 153.523438 141.339844 155.949219 137.601562 C 157.828125 134.707031 162.109375 133.542969 165.144531 132.398438 C 174.328125 128.945312 183.859375 126.277344 193.378906 123.9375 C 195.96875 123.300781 198.636719 122.527344 201.292969 122.246094 C 203.070312 122.058594 201.671875 122.65625 200.839844 122.984375 C 193.257812 125.996094 185.296875 128.15625 177.574219 130.792969 C 172.824219 132.414062 168.054688 134.050781 163.453125 136.058594 C 162.0625 136.667969 160.4375 137.246094 159.246094 138.195312 C 157.785156 139.359375 157.46875 141.363281 157.359375 143.125 C 157.089844 147.566406 158.199219 152.15625 159.320312 156.414062 C 160.621094 161.367188 162.265625 166.230469 164.027344 171.035156 C 167.335938 180.074219 171.121094 188.933594 174.980469 197.75 C 176.164062 200.445312 177.457031 203.125 178.472656 205.894531 C 178.910156 207.085938 178.871094 207.457031 178.035156 206.292969 C 176.039062 203.515625 174.492188 200.339844 172.921875 197.316406 C 170.589844 192.832031 168.402344 188.273438 166.335938 183.660156 C 161.65625 173.222656 157.144531 162.292969 155.082031 150.992188 " fill-opacity="1" fill-rule="nonzero"/><g clip-path="url(#7a382aa4a3)"><path fill="#db8e4b" d="M 259.890625 208.078125 C 259.890625 208.078125 251.144531 240.113281 250.183594 268.71875 C 249.367188 292.949219 257.070312 315.605469 257.109375 315.894531 C 257.371094 317.925781 264.761719 320.148438 276.144531 313.625 C 287.527344 307.097656 319.132812 282.550781 319.132812 282.550781 C 320.15625 277.421875 268.617188 210.601562 259.890625 208.078125 " fill-opacity="1" fill-rule="nonzero"/></g><g clip-path="url(#6f8fc306fa)"><path fill="#eaa15e" d="M 211.707031 241.410156 C 212.253906 234.667969 254.8125 205.582031 259.890625 208.078125 C 264.972656 210.578125 251.101562 310.011719 259.046875 317.488281 C 247.394531 313.773438 210.878906 251.582031 211.707031 241.410156 " fill-opacity="1" fill-rule="nonzero"/></g><path fill="#bd753d" d="M 318.828125 281.140625 C 318.828125 281.140625 259.917969 303.1875 260.945312 313.507812 C 261.972656 323.828125 318.828125 281.140625 318.828125 281.140625 " fill-opacity="1" fill-rule="nonzero"/><path fill="#f2ae6f" d="M 237.183594 225.640625 C 231.664062 229.046875 226.410156 233.628906 225.074219 240.269531 C 224.0625 245.304688 225.71875 250.480469 227.71875 255.214844 C 229.984375 260.585938 232.722656 265.757812 235.878906 270.664062 C 238.007812 273.972656 243.59375 286.132812 249.144531 282.359375 C 252.710938 279.929688 251.253906 272.867188 250.890625 269.328125 C 250.09375 261.484375 251.660156 252.695312 252.378906 244.867188 C 252.78125 240.464844 253.007812 235.921875 253.9375 231.605469 C 254.824219 227.496094 256.066406 223.617188 255.78125 219.339844 C 255.398438 213.640625 249.484375 219.171875 246.570312 220.628906 C 243.519531 222.164062 240.441406 223.660156 237.523438 225.433594 C 237.410156 225.503906 237.296875 225.570312 237.183594 225.640625 " fill-opacity="1" fill-rule="nonzero"/></svg>